<svg height="496pt" viewBox="-31 0 495 496" width="496pt" xmlns="http://www.w3.org/2000/svg"><path d="m216.5 128c22.054688 0 40-17.945312 40-40s-17.945312-40-40-40-40 17.945312-40 40 17.945312 40 40 40zm0-64c13.230469 0 24 10.769531 24 24s-10.769531 24-24 24-24-10.769531-24-24 10.769531-24 24-24zm0 0"/><path d="m248.5 304h-64c-4.425781 0-8 3.585938-8 8v176c0 4.414062 3.574219 8 8 8h64c4.425781 0 8-3.585938 8-8v-176c0-4.414062-3.574219-8-8-8zm-8 176h-48v-160h48zm0 0"/><path d="m344.5 224h-64c-4.425781 0-8 3.585938-8 8v256c0 4.414062 3.574219 8 8 8h64c4.425781 0 8-3.585938 8-8v-256c0-4.414062-3.574219-8-8-8zm-8 256h-48v-240h48zm0 0"/><path d="m152.5 384h-64c-4.425781 0-8 3.585938-8 8v96c0 4.414062 3.574219 8 8 8h64c4.425781 0 8-3.585938 8-8v-96c0-4.414062-3.574219-8-8-8zm-8 96h-48v-80h48zm0 0"/><path d="m430.15625 194.34375-48-48-11.3125 11.3125 34.34375 34.34375h-156.6875c-4.425781 0-8 3.585938-8 8v72h-88c-4.425781 0-8 3.585938-8 8v72h-81.136719c-3.574219-13.761719-15.992187-24-30.863281-24-17.648438 0-32 14.351562-32 32s14.351562 32 32 32c14.871094 0 27.289062-10.238281 30.863281-24h89.136719c4.425781 0 8-3.585938 8-8v-72h88c4.425781 0 8-3.585938 8-8v-72h148.6875l-34.34375 34.34375 11.3125 11.3125 48-48c3.128906-3.128906 3.128906-8.183594 0-11.3125zm-397.65625 181.65625c-8.824219 0-16-7.175781-16-16s7.175781-16 16-16 16 7.175781 16 16-7.175781 16-16 16zm0 0"/><path d="m48.5 120c14.871094 0 27.289062-10.238281 30.863281-24h49.136719v8c0 4.414062 3.574219 8 8 8h12.167969c.726562 2.0625 1.542969 4.089844 2.449219 6.0625l-12.273438 12.28125c-3.128906 3.128906-3.128906 8.183594 0 11.3125l24 24c3 3 8.3125 3 11.3125 0l12.28125-12.28125c1.964844.90625 3.992188 1.722656 6.0625 2.449219v12.175781c0 4.414062 3.574219 8 8 8h32c4.425781 0 8-3.585938 8-8v-12.175781c2.070312-.726563 4.097656-1.542969 6.0625-2.449219l12.28125 12.28125c1.496094 1.503906 3.527344 2.34375 5.65625 2.34375s4.160156-.839844 5.65625-2.34375l24-24c3.128906-3.128906 3.128906-8.183594 0-11.3125l-12.273438-12.28125c.898438-1.972656 1.722657-4 2.449219-6.0625h12.167969c4.425781 0 8-3.585938 8-8v-8h49.136719c3.574219 13.761719 15.992187 24 30.863281 24 17.648438 0 32-14.351562 32-32s-14.351562-32-32-32c-14.871094 0-27.289062 10.238281-30.863281 24h-49.136719v-8c0-4.414062-3.574219-8-8-8h-12.167969c-.726562-2.0625-1.542969-4.089844-2.449219-6.0625l12.273438-12.28125c3.128906-3.128906 3.128906-8.183594 0-11.3125l-24-24c-3-3-8.3125-3-11.3125 0l-12.28125 12.28125c-1.964844-.90625-3.992188-1.722656-6.0625-2.449219v-12.175781c0-4.414062-3.574219-8-8-8h-32c-4.425781 0-8 3.585938-8 8v12.175781c-2.070312.726563-4.097656 1.542969-6.0625 2.449219l-12.28125-12.28125c-1.496094-1.503906-3.527344-2.34375-5.65625-2.34375s-4.160156.839844-5.65625 2.34375l-24 24c-3.128906 3.128906-3.128906 8.183594 0 11.3125l12.273438 12.28125c-.898438 1.972656-1.722657 4-2.449219 6.0625h-12.167969c-4.425781 0-8 3.585938-8 8v8h-49.136719c-3.574219-13.761719-15.992187-24-30.863281-24-17.648438 0-32 14.351562-32 32s14.351562 32 32 32zm336-48c8.824219 0 16 7.175781 16 16s-7.175781 16-16 16-16-7.175781-16-16 7.175781-16 16-16zm-240 8h10.097656c3.644532 0 6.832032-2.464844 7.742188-6 1.257812-4.847656 3.113281-9.441406 5.503906-13.648438 1.785156-3.136718 1.25-7.070312-1.296875-9.617187l-10.734375-10.734375 12.6875-12.6875 10.734375 10.734375c2.546875 2.554687 6.496094 3.074219 9.617187 1.296875 4.207032-2.398438 8.800782-4.246094 13.648438-5.503906 3.527344-.902344 6-4.097656 6-7.742188v-10.097656h16v10.097656c0 3.644532 2.472656 6.832032 6 7.742188 4.847656 1.25 9.441406 3.105468 13.648438 5.503906 3.113281 1.777344 7.0625 1.257812 9.617187-1.296875l10.734375-10.734375 12.6875 12.6875-10.734375 10.734375c-2.546875 2.546875-3.082031 6.488281-1.296875 9.617187 2.398438 4.207032 4.246094 8.800782 5.503906 13.648438.910156 3.527344 4.097656 6 7.742188 6h10.097656v16h-10.097656c-3.644532 0-6.832032 2.464844-7.742188 6-1.257812 4.847656-3.113281 9.441406-5.503906 13.648438-1.785156 3.136718-1.25 7.070312 1.296875 9.617187l10.734375 10.734375-12.6875 12.6875-10.734375-10.734375c-2.554687-2.554687-6.503906-3.089844-9.617187-1.296875-4.207032 2.398438-8.800782 4.246094-13.648438 5.503906-3.527344.902344-6 4.097656-6 7.742188v10.097656h-16v-10.097656c0-3.644532-2.472656-6.832032-6-7.742188-4.847656-1.25-9.441406-3.105468-13.648438-5.503906-3.121093-1.792969-7.070312-1.265625-9.617187 1.296875l-10.734375 10.734375-12.6875-12.6875 10.734375-10.734375c2.546875-2.546875 3.082031-6.488281 1.296875-9.617187-2.398438-4.207032-4.246094-8.800782-5.503906-13.648438-.917969-3.535156-4.097656-6-7.742188-6h-10.097656zm-96-8c8.824219 0 16 7.175781 16 16s-7.175781 16-16 16-16-7.175781-16-16 7.175781-16 16-16zm0 0"/></svg>