<?xml version="1.0" encoding="iso-8859-1"?>
<!-- Generator: Adobe Illustrator 19.0.0, SVG Export Plug-In . SVG Version: 6.00 Build 0)  -->
<svg xmlns="http://www.w3.org/2000/svg" xmlns:xlink="http://www.w3.org/1999/xlink" version="1.1" id="Capa_1" x="0px" y="0px" viewBox="0 0 512 512" style="enable-background:new 0 0 512 512;" xml:space="preserve" width="40px" height="40px">
<g>
	<g>
		<rect x="166" y="462" width="30" height="50" fill="#f18d35"/>
	</g>
</g>
<g>
	<g>
		<rect x="366" y="462" width="30" height="50" fill="#f18d35"/>
	</g>
</g>
<g>
	<g>
		<path d="M487,306c0-20.085-9.16-38.067-23.518-50C477.84,244.067,487,226.085,487,206c0-30.884-21.648-56.806-50.569-63.386    C429.618,62.84,362.509,0,281,0S132.382,62.84,125.569,142.614C96.648,149.194,75,175.116,75,206c0,20.085,9.16,38.067,23.518,50    C84.16,267.933,75,285.915,75,306c0,26.784,16.286,49.831,39.474,59.771C96.827,383.082,86,407.162,86,433.604V512h30v-78.396    c0-33.167,24.858-60.94,57.822-64.603l4.09-0.455c4.617,19.751,17.362,36.988,35.524,47.078L281,453.159l67.563-37.535    c18.162-10.089,30.907-27.326,35.524-47.078l4.091,0.455C421.142,372.664,446,400.437,446,433.604V512h30v-78.396    c0-26.442-10.827-50.522-28.474-67.833C470.714,355.831,487,332.784,487,306z M333.994,389.399L281,418.841L228.006,389.4    c-9.597-5.332-16.605-14.064-19.899-24.208L256,359.87v-42.215c7.969,2.176,16.35,3.345,25,3.345c8.65,0,17.031-1.169,25-3.345    v42.215l47.893,5.321C350.599,375.335,343.591,384.068,333.994,389.399z M216,226v-56.507c18.286-3.727,34.176-14.129,45-28.541    C274.695,159.186,296.493,171,321,171h25v55c0,35.841-29.159,65-65,65S216,261.841,216,226z M457,306c0,19.299-15.701,35-35,35    h-19.869c-3.476-0.789-7.02-1.413-10.64-1.815L336,333.019v-29.6c24.193-17.237,40-45.517,40-77.419v-85h-55    c-24.813,0-45-20.187-45-45h-30c0,24.813-20.187,45-45,45h-15v85c0,31.902,15.807,60.182,40,77.419v29.6l-55.491,6.166    c-3.62,0.402-7.164,1.027-10.64,1.815H140c-19.299,0-35-15.701-35-35s15.701-35,35-35v-30c-19.299,0-35-15.701-35-35    s15.701-35,35-35h15v-15c0-69.477,56.523-126,126-126s126,56.523,126,126v15h15c19.299,0,35,15.701,35,35s-15.701,35-35,35v30    C441.299,271,457,286.701,457,306z" fill="#f18d35"/>
	</g>
</g>
<g>
	<g>
		<polygon points="125,46.327 90.451,41.307 75,10 59.549,41.307 25,46.327 50,70.696 44.098,105.105 75,88.86 105.902,105.105     100,70.696   " fill="#f18d35"/>
	</g>
</g>
<g>
</g>
<g>
</g>
<g>
</g>
<g>
</g>
<g>
</g>
<g>
</g>
<g>
</g>
<g>
</g>
<g>
</g>
<g>
</g>
<g>
</g>
<g>
</g>
<g>
</g>
<g>
</g>
<g>
</g>
</svg>
