<?xml version="1.0" encoding="UTF-8"?>
<!DOCTYPE svg PUBLIC "-//W3C//DTD SVG 1.1//EN" "http://www.w3.org/Graphics/SVG/1.1/DTD/svg11.dtd">
<!-- Creator: CorelDRAW X7 -->
<svg xmlns="http://www.w3.org/2000/svg" xml:space="preserve" width="66px" height="66px" version="1.1" style="shape-rendering:geometricPrecision; text-rendering:geometricPrecision; image-rendering:optimizeQuality; fill-rule:evenodd; clip-rule:evenodd"
viewBox="0 0 1351 1351"
 xmlns:xlink="http://www.w3.org/1999/xlink">
 <defs>
  <style type="text/css">
   <![CDATA[
    .str0 {stroke:#E31E24;stroke-width:40.9486}
    .fil0 {fill:none}
    .fil1 {fill:#E31E24}
   ]]>
  </style>
 </defs>
 <g id="Слой_x0020_1">
  <metadata id="CorelCorpID_0Corel-Layer"/>
  <g id="_962191744">
   <circle class="fil0 str0" cx="676" cy="676" r="655"/>
   <g>
    <path class="fil1" d="M660 323c63,-4 106,18 141,47 5,4 7,7 12,11 5,5 7,8 11,13 22,26 37,64 40,101 3,29 -2,57 -11,83 -14,39 -40,69 -73,92 -22,16 -59,28 -87,31 -42,3 -82,-7 -116,-28 -51,-31 -84,-81 -90,-145 -5,-50 14,-106 47,-142 5,-5 7,-7 12,-12 4,-5 7,-7 12,-11 26,-21 67,-38 102,-40zm-125 533c9,3 4,1 14,18l3 -5c4,1 7,-2 4,6 1,-2 -2,-7 11,-5 9,2 0,0 4,3 3,2 -4,2 7,2 3,0 8,0 11,0 13,0 27,0 40,0 2,3 2,5 3,7 19,0 38,1 58,1 21,0 38,-2 58,-2 3,-7 -2,-6 8,-6 5,0 11,0 16,0l2 -7c18,0 21,2 23,-3l2 -8c1,0 1,-1 1,-1 2,3 5,12 5,16 -1,-8 3,-6 7,-19 2,-8 1,-6 7,-12 5,-5 6,-11 8,-15 4,-7 2,2 7,-12 1,-4 3,-3 5,-8 1,-2 1,-4 2,-6 2,-1 1,-1 5,-1 14,-26 24,-54 38,-81 10,-21 25,-63 33,-87 24,-68 36,-128 12,-202 -13,-38 -29,-68 -54,-95 -15,-17 -27,-29 -48,-42 -50,-34 -117,-54 -193,-43 -58,9 -119,39 -156,83 -9,11 -17,20 -26,33 -26,42 -40,87 -42,138 -3,72 28,142 52,201 13,30 62,141 73,152z"/>
    <path class="fil1" d="M535 854c9,28 118,210 118,216 4,3 4,3 7,8 4,7 11,22 17,26 2,-6 6,-11 9,-17 4,-5 7,-13 12,-17 1,-5 10,-18 13,-25 49,-86 90,-155 135,-248 -4,0 -3,0 -5,1 -1,2 -1,5 -2,6 -2,5 -4,4 -5,9 -5,13 -3,4 -7,12 -2,4 -3,9 -8,15 -6,5 -5,3 -7,11 -4,13 -8,11 -7,19 0,-4 -3,-13 -5,-16 0,1 0,1 -1,1l-2 8c-2,5 -5,3 -23,3l-2 7c-5,0 -11,0 -16,0 -10,1 -5,0 -8,6 -20,0 -37,2 -58,2 -20,0 -39,0 -58,0 -1,-3 -1,-4 -3,-7 -13,0 -27,0 -40,0 -3,-1 -8,0 -11,-1 -11,0 -4,0 -7,-2 -4,-3 5,0 -4,-2 -13,-3 -10,3 -11,4 3,-7 0,-4 -4,-6l-3 5c-10,-16 -5,-15 -14,-18z"/>
    <path class="fil1" d="M670 570c-28,1 -12,-7 -45,24 -6,6 -10,14 -23,13 -18,0 -32,-22 -13,-41 7,-6 13,-12 19,-18 13,-14 29,-27 46,-2 9,1 9,1 17,-2 -1,-17 -34,-44 -64,-21 -9,7 -16,16 -26,26 -45,41 -1,89 38,73 10,-4 47,-40 51,-52z"/>
    <path class="fil1" d="M681 454c22,0 18,2 29,-9 16,-17 29,-35 48,-27 8,4 15,13 13,25 -2,11 -11,17 -17,22 -15,15 -28,35 -48,23 -11,-7 -4,-15 -26,-9 4,27 42,40 65,21 8,-7 16,-17 25,-25 8,-7 18,-16 19,-33 2,-28 -26,-53 -57,-40 -10,4 -48,40 -51,52z"/>
    <path class="fil1" d="M623 512l21 0 29 -30c22,-21 37,5 40,6 8,1 10,1 16,-2 1,-17 -33,-41 -60,-24 -11,8 -42,38 -46,50z"/>
    <path class="fil1" d="M622 539c6,22 35,39 61,22 6,-3 42,-38 45,-49l-21 0c-3,4 -30,32 -36,35 -22,11 -27,-11 -37,-12 -5,-1 -9,1 -12,4z"/>
   </g>
  </g>
 </g>
</svg>
