<?xml version="1.0" encoding="UTF-8"?>
<!DOCTYPE svg PUBLIC "-//W3C//DTD SVG 1.1//EN" "http://www.w3.org/Graphics/SVG/1.1/DTD/svg11.dtd">
<!-- Creator: CorelDRAW X7 -->
<svg xmlns="http://www.w3.org/2000/svg" xml:space="preserve" width="66px" height="66px" version="1.1" style="shape-rendering:geometricPrecision; text-rendering:geometricPrecision; image-rendering:optimizeQuality; fill-rule:evenodd; clip-rule:evenodd"
viewBox="0 0 1319 1319"
 xmlns:xlink="http://www.w3.org/1999/xlink">
 <defs>
  <style type="text/css">
   <![CDATA[
    .str0 {stroke:#E31E24;stroke-width:39.9642}
    .fil0 {fill:none}
    .fil1 {fill:#E31E24}
   ]]>
  </style>
 </defs>
 <g id="Слой_x0020_1">
  <metadata id="CorelCorpID_0Corel-Layer"/>
  <g id="_968934096">
   <circle class="fil0 str0" cx="659" cy="659" r="640"/>
   <g>
    <path class="fil1" d="M619 635l-106 -1c-8,67 8,292 -2,340l-60 0c-7,-34 6,-213 -3,-241l-102 1c-9,19 3,208 -4,240 -56,1 -47,-2 -45,8 32,23 3,20 75,21 32,0 65,0 97,0l492 -1c16,1 34,3 45,-4 6,-5 21,-18 25,-25l-70 0 0 -487 -109 0 0 486 -66 1 -1 -313 -108 0 -1 312 -55 1 -2 -338z"/>
    <path class="fil1" d="M888 294c-11,17 -36,42 -49,57 -17,20 -33,38 -50,56 -17,19 -33,39 -50,56 -11,13 -43,45 -49,57 7,8 12,13 17,25 8,-5 18,-18 26,-26 36,-40 158,-179 185,-204 3,22 3,51 3,74 2,43 30,33 33,16 1,-4 -2,-144 -9,-148 -5,-4 -127,8 -142,11 -23,4 -28,35 10,32 24,-2 50,-7 75,-6z"/>
    <path class="fil1" d="M289 597l-1 34c16,-5 58,-31 75,-41 19,-11 66,-34 77,-45l-10 -27 -141 79z"/>
    <polygon class="fil1" points="498,542 640,567 640,534 500,508 "/>
    <path class="fil1" d="M297 982c-2,-10 -11,-7 45,-8 7,-32 -5,-221 4,-240l102 -1c9,28 -4,207 3,241l60 0c10,-48 -6,-273 2,-340l106 1c-3,-8 -106,-4 -108,-4 -5,16 0,291 -2,340l-55 -1c-5,-47 5,-214 -2,-240l-110 -1c-9,29 4,206 -4,241 -7,0 -14,0 -22,0 -14,0 -18,-1 -28,5 6,10 0,3 9,7z"/>
    <path class="fil1" d="M663 535c0,0 -17,6 -8,26 4,7 17,13 27,7 20,-10 5,-48 -19,-33z"/>
    <path class="fil1" d="M456 507c-9,6 -14,15 -5,27 5,8 17,10 25,5 21,-13 4,-48 -20,-32z"/>
   </g>
  </g>
 </g>
</svg>
