<?xml version="1.0" encoding="UTF-8"?>
<!DOCTYPE svg PUBLIC "-//W3C//DTD SVG 1.1//EN" "http://www.w3.org/Graphics/SVG/1.1/DTD/svg11.dtd">
<!-- Creator: CorelDRAW X7 -->
<svg xmlns="http://www.w3.org/2000/svg" xml:space="preserve" width="66px" height="66px" version="1.1" style="shape-rendering:geometricPrecision; text-rendering:geometricPrecision; image-rendering:optimizeQuality; fill-rule:evenodd; clip-rule:evenodd"
viewBox="0 0 573 573"
 xmlns:xlink="http://www.w3.org/1999/xlink">
 <defs>
  <style type="text/css">
   <![CDATA[
    .str0 {stroke:#E31E24;stroke-width:17.3658}
    .fil0 {fill:none}
    .fil1 {fill:#E31E24}
   ]]>
  </style>
 </defs>
 <g id="Слой_x0020_1">
  <metadata id="CorelCorpID_0Corel-Layer"/>
  <g id="_962593296">
   <circle class="fil0 str0" cx="287" cy="287" r="278"/>
   <path class="fil1" d="M102 197l36 0 0 55 -36 0 0 -55zm233 158c0,29 34,20 52,47 -18,10 -29,4 -47,0 -3,12 -4,12 -5,26l31 6 0 15 21 0 0 -21c34,-3 47,-44 2,-64 -7,-4 -9,-3 -14,-7 -10,-7 -5,-1 -9,-13 13,-11 26,-1 42,0 1,-16 0,-9 5,-21 -14,-6 -5,-4 -26,-5l0 -15 -21 0c-3,25 -2,9 -19,22 -9,7 -12,16 -12,30zm-200 58c12,14 30,28 57,28 27,-1 38,-10 50,-31 -15,-7 -42,-26 -53,-31 -11,6 -38,23 -54,34zm173 -202c4,0 4,0 5,1 4,-3 9,-9 16,-16 5,-4 13,-12 16,-16 1,-1 1,-2 2,-3 -1,-1 -1,1 -1,-3 0,-3 6,-12 12,-12 7,0 12,8 12,12 0,4 0,3 0,4 1,2 3,4 14,9 7,4 13,9 20,11 2,-2 5,-3 7,-3 3,0 4,1 6,2 9,-3 20,-10 36,-24 1,-1 2,-2 3,-3 -1,-2 -1,-1 -1,-5 0,-4 5,-12 12,-12 7,0 12,5 12,12 0,7 -7,12 -12,12 -4,0 -4,-1 -6,-2 -10,6 -23,16 -39,27 1,2 1,1 1,5 0,5 -5,12 -12,12 -6,0 -12,-8 -12,-12 0,-4 0,-2 1,-4 -7,-4 -23,-15 -35,-19 -2,2 -4,2 -7,2 -2,0 -5,0 -6,-2 -8,6 -24,21 -34,33 1,2 2,2 2,6 0,4 -6,12 -12,12 -7,0 -12,-5 -12,-12 0,-7 8,-12 12,-12zm-176 197l54 -33 1 -63c-25,0 -43,14 -54,30 -8,13 -12,40 -1,66zm60 -33c17,10 36,21 53,31l4 -10c15,-36 -11,-80 -57,-84l0 63zm24 -238l37 0 0 115 -37 0 0 -115zm-59 30l37 0 0 85 -37 0 0 -85z"/>
  </g>
 </g>
</svg>
