<?xml version="1.0" encoding="UTF-8"?>
<!DOCTYPE svg PUBLIC "-//W3C//DTD SVG 1.1//EN" "http://www.w3.org/Graphics/SVG/1.1/DTD/svg11.dtd">
<!-- Creator: CorelDRAW X7 -->
<svg xmlns="http://www.w3.org/2000/svg" xml:space="preserve" width="66px" height="66px" version="1.1" style="shape-rendering:geometricPrecision; text-rendering:geometricPrecision; image-rendering:optimizeQuality; fill-rule:evenodd; clip-rule:evenodd"
viewBox="0 0 2277 2277"
 xmlns:xlink="http://www.w3.org/1999/xlink">
 <defs>
  <style type="text/css">
   <![CDATA[
    .str0 {stroke:#E31E24;stroke-width:68.9806}
    .fil0 {fill:none}
    .fil1 {fill:#E31E24}
   ]]>
  </style>
 </defs>
 <g id="Слой_x0020_1">
  <metadata id="CorelCorpID_0Corel-Layer"/>
  <g id="_960293552">
   <circle class="fil0 str0" cx="1138" cy="1138" r="1104"/>
   <g>
    <path class="fil1" d="M1272 1583c0,-106 64,-190 147,-230 94,-45 209,-21 280,50 166,166 42,430 -177,430 -135,0 -250,-117 -250,-250zm284 314l-55 0c-59,-5 -118,-26 -167,-61 -35,-25 -90,-87 -99,-127l-565 0c-54,0 -96,-47 -96,-89l0 -1025c0,-44 46,-90 90,-90l259 0 0 -15c0,-29 25,-65 42,-79 92,-73 211,-12 211,94l260 0c43,0 89,46 89,90l0 670c107,0 199,51 259,133 45,63 56,119 56,200 0,116 -78,220 -180,271 -32,16 -68,25 -104,28zm-522 -1040c20,0 39,-3 51,11 14,15 4,8 27,14 42,11 32,76 24,111 -3,15 -11,28 -12,43 13,9 15,4 15,22 -36,0 -12,4 -28,49 -20,58 -27,-13 -27,77 0,110 80,90 156,147 10,8 14,13 17,26l-414 0c6,-25 13,-23 41,-39 36,-22 132,-43 132,-109 0,-126 -4,-43 -27,-103 -3,-7 -5,-17 -6,-24 -3,-23 5,-24 -23,-24 1,-26 13,-11 13,-22 0,-15 -9,-39 -11,-57 -4,-23 -4,-38 -1,-60 4,-37 30,-62 73,-62zm-142 77c0,34 10,71 8,82 -4,17 -15,23 0,65 7,24 16,23 20,29l13 34c14,33 15,9 15,59 0,24 -86,42 -125,72 -50,38 -60,74 -60,150l484 0c-2,12 -18,37 -26,63 -15,44 -18,110 -8,156l-539 0c-25,-4 -35,-17 -35,-46l0 -982c0,-33 13,-46 47,-46l237 0c0,43 -11,96 31,96l192 0c41,0 30,-53 30,-96l238 0c61,0 46,52 46,139l0 562c-100,23 -115,56 -138,61 -19,-77 -170,-102 -170,-129 0,-53 2,-19 24,-84 0,-1 1,-4 1,-5 4,-8 6,-6 14,-14 9,-12 16,-40 16,-55 0,-29 -13,-19 -4,-50 18,-66 11,-150 -66,-175 -24,-8 -43,-31 -84,-31 -94,0 -161,52 -161,145zm96 -429c0,-33 31,-58 53,-58 21,0 36,-2 55,19 24,26 16,83 16,135l-124 0 0 -96z"/>
    <path class="fil1" d="M1494 1638c-11,-7 -65,-62 -83,-74l-43 49 139 127c8,-6 15,-22 23,-33 8,-12 16,-23 23,-35 19,-31 131,-197 133,-213 -20,-5 -37,-26 -56,-31 -23,35 -45,71 -68,105 -23,35 -44,71 -68,105z"/>
    <path class="fil1" d="M1047 539l6 0c39,0 39,-65 0,-65l-6 0c-40,0 -39,65 0,65z"/>
   </g>
  </g>
 </g>
</svg>
