<?xml version="1.0" encoding="UTF-8"?>
<!DOCTYPE svg PUBLIC "-//W3C//DTD SVG 1.1//EN" "http://www.w3.org/Graphics/SVG/1.1/DTD/svg11.dtd">
<!-- Creator: CorelDRAW X7 -->
<svg xmlns="http://www.w3.org/2000/svg" xml:space="preserve" width="66px" height="66px" version="1.1" style="shape-rendering:geometricPrecision; text-rendering:geometricPrecision; image-rendering:optimizeQuality; fill-rule:evenodd; clip-rule:evenodd"
viewBox="0 0 489 489"
 xmlns:xlink="http://www.w3.org/1999/xlink">
 <defs>
  <style type="text/css">
   <![CDATA[
    .str0 {stroke:#E31E24;stroke-width:14.8127}
    .fil0 {fill:none}
    .fil1 {fill:#E31E24}
   ]]>
  </style>
 </defs>
 <g id="Слой_x0020_1">
  <metadata id="CorelCorpID_0Corel-Layer"/>
  <circle class="fil0 str0" cx="244" cy="244" r="237"/>
  <g id="_918137184">
   <path class="fil1" d="M218 290c-19,0 -37,-6 -50,-19 -1,-1 -2,-1 -3,-2 -8,-7 -17,-22 -20,-33 -5,-21 -1,-44 11,-62 2,-2 3,-3 4,-5 2,-2 3,-3 4,-5 2,-1 3,-2 5,-3 6,-7 20,-13 29,-16 17,-4 35,-3 50,5 10,5 19,11 25,20 16,19 22,46 13,70 -1,3 -2,5 -2,7 -4,8 -7,13 -13,19l-5 5c-7,6 -9,8 -19,12 -8,4 -20,7 -29,7zm-7 17c20,0 22,0 39,-6 4,-1 9,-4 12,-6 4,-2 7,-4 10,-7l8 8c0,2 -1,4 -2,7 0,8 7,14 11,18 8,8 32,33 39,39 3,2 9,4 15,2 6,-1 12,-8 16,-13 5,-6 5,-15 1,-21 -4,-5 -33,-33 -38,-38 -7,-7 -12,-13 -22,-11 -2,0 -3,1 -4,1l-8 -8c4,-4 11,-16 13,-22 5,-17 6,-19 6,-39 0,-4 -1,-10 -2,-14 -3,-13 -7,-23 -16,-34 -3,-4 -8,-11 -12,-13l-17 -13c-1,0 -1,-1 -3,-1 -8,-4 -15,-7 -24,-9 -19,-2 -34,-1 -50,5 -20,8 -34,21 -45,39 -4,8 -7,16 -9,24 -4,12 -4,24 -2,37l4 14c2,7 3,10 8,17 1,2 2,3 3,5 1,2 2,3 3,5 4,5 12,12 17,16 9,6 18,11 28,14 2,1 4,1 7,2 3,1 10,2 14,2z"/>
   <path class="fil1" d="M162 218c0,13 3,20 8,29 6,9 15,16 24,20 9,3 20,4 29,2 3,0 5,-1 7,-2 3,-1 10,-4 11,-6 -12,0 -19,0 -30,-4 -5,-2 -7,-4 -11,-6l-7 -6c-2,-1 -2,-1 -3,-2l-8 -9c-8,-11 -12,-26 -12,-40 -2,1 -2,2 -3,5 -3,5 -5,13 -5,19z"/>
  </g>
 </g>
</svg>
