<?xml version="1.0" encoding="UTF-8"?>
<!DOCTYPE svg PUBLIC "-//W3C//DTD SVG 1.1//EN" "http://www.w3.org/Graphics/SVG/1.1/DTD/svg11.dtd">
<!-- Creator: CorelDRAW X7 -->
<svg xmlns="http://www.w3.org/2000/svg" xml:space="preserve" width="66px" height="66px" version="1.1" style="shape-rendering:geometricPrecision; text-rendering:geometricPrecision; image-rendering:optimizeQuality; fill-rule:evenodd; clip-rule:evenodd"
viewBox="0 0 910 910"
 xmlns:xlink="http://www.w3.org/1999/xlink">
 <defs>
  <style type="text/css">
   <![CDATA[
    .str0 {stroke:#E31E24;stroke-width:27.58}
    .fil0 {fill:none}
    .fil1 {fill:#E31E24}
   ]]>
  </style>
 </defs>
 <g id="Слой_x0020_1">
  <metadata id="CorelCorpID_0Corel-Layer"/>
  <g id="_918835440">
   <circle class="fil0 str0" cx="455" cy="455" r="441"/>
   <g>
    <path class="fil1" d="M214 433c0,-28 13,-64 24,-86 23,-47 64,-87 110,-110 23,-11 57,-22 86,-23 1,-1 1,-1 1,-1l3 0c3,4 1,35 2,43l31 0 0 -43c3,-1 3,-1 6,1 29,0 64,13 86,24 47,22 87,64 110,110 11,23 22,57 24,86l1 4c-5,3 -36,1 -44,1l0 32 43 0c1,3 1,4 -1,6 0,28 -13,64 -24,86 -22,46 -64,88 -110,110 -23,11 -57,23 -86,24l-2 0c-2,1 0,1 -2,1 -3,-5 -1,-36 -1,-44l-31 0 -1 43c-3,1 -3,1 -5,-1 -28,0 -66,-13 -87,-24 -46,-22 -87,-64 -110,-110 -11,-23 -22,-56 -23,-86l-1 -4c4,-3 35,-1 43,-1l0 -31 -43 -1c-1,-3 -1,-3 1,-6zm-35 5l0 32c1,2 3,24 4,28 18,108 95,194 198,223 9,2 18,4 27,6 6,1 26,2 29,4l33 0c3,-1 24,-3 29,-4 10,-1 18,-3 27,-5 94,-25 171,-102 196,-196 2,-9 4,-17 5,-27 1,-5 3,-27 4,-29l0 -33c-2,-3 -3,-23 -4,-29 -2,-9 -4,-17 -6,-26 -4,-16 -11,-32 -18,-47 -14,-30 -32,-54 -53,-74 -34,-34 -72,-58 -120,-71 -21,-6 -50,-9 -53,-10 0,0 0,0 -1,0 0,-1 0,-1 0,-1l-36 0c-2,1 -23,3 -28,4 -26,4 -51,12 -75,23 -81,39 -139,114 -154,204 -1,5 -2,25 -4,28z"/>
    <path class="fil1" d="M323 582l264 0c1,-14 -2,-34 -8,-45 -8,-15 -13,-18 -28,-26 -17,-9 -40,-14 -57,-22 -7,-3 -10,-7 -11,-17 0,-5 2,-7 4,-10 12,-19 20,-50 20,-73 0,-36 -18,-54 -54,-54 -35,1 -52,19 -52,55 1,49 26,78 26,82 1,16 -17,19 -29,24 -13,4 -28,9 -39,15 -15,8 -19,10 -27,26 -6,11 -10,30 -9,45z"/>
    <path class="fil1" d="M499 335c8,9 13,12 18,28 9,29 -1,79 -17,103 -2,4 -4,5 -3,9 4,4 36,14 44,17 14,7 18,9 30,16 7,4 4,4 8,8l41 0c1,-12 -2,-27 -7,-36 -10,-19 -32,-23 -55,-31 -4,-2 -11,-4 -14,-8 -4,-8 -1,-11 2,-17 10,-16 18,-48 12,-71 -3,-11 -11,-18 -22,-21 -12,-3 -27,-2 -37,3z"/>
    <path class="fil1" d="M290 516l41 0c6,-8 6,-7 17,-13 6,-4 13,-7 20,-10l45 -17c0,-4 -11,-21 -15,-33 -4,-12 -7,-23 -9,-37 -3,-20 -1,-43 10,-59 4,-6 7,-8 11,-12 -10,-5 -25,-6 -37,-3 -11,3 -19,10 -22,22 -7,24 2,52 12,70 3,5 7,7 4,15 -3,5 -7,7 -13,9 -23,8 -46,12 -57,32 -4,8 -9,24 -7,36z"/>
    <path class="fil1" d="M696 477c2,-2 2,-3 1,-6l-43 0 0 -32c8,0 39,2 44,-1l-1 -4 0 4c-9,0 -38,-1 -43,1l-1 33 44 0 -1 5z"/>
    <path class="fil1" d="M434 696c2,2 2,2 5,1l1 -43 31 0c0,8 -2,39 1,44 2,0 0,0 2,-1l2 0 -4 0 0 -44 -34 1 0 43 -4 -1z"/>
    <path class="fil1" d="M477 214c-3,-2 -3,-2 -6,-1l0 43 -31 0c-1,-8 1,-39 -2,-43l-3 0c0,0 0,0 -1,1l4 0 0 43 34 0 0 -43 5 0z"/>
    <path class="fil1" d="M214 476l0 -4 43 0 0 -33 -43 -1 0 -5c-2,3 -2,3 -1,6l43 1 0 31c-8,0 -39,-2 -43,1l1 4z"/>
   </g>
  </g>
 </g>
</svg>
