<?xml version="1.0" encoding="iso-8859-1"?>
<!-- Generator: Adobe Illustrator 19.0.0, SVG Export Plug-In . SVG Version: 6.00 Build 0)  -->
<svg version="1.1" id="Layer_1" xmlns="http://www.w3.org/2000/svg" xmlns:xlink="http://www.w3.org/1999/xlink" x="0px" y="0px"
	 viewBox="0 0 512 512" style="enable-background:new 0 0 512 512;" xml:space="preserve">
<path style="fill:#A0F6FA;" d="M508.646,214.577C488.846,92.893,383.28,0,256,0C114.616,0,0,114.616,0,256s114.616,256,256,256
	c10.654,0,21.152-0.662,31.465-1.927L508.646,214.577z"/>
<path style="fill:#50D1DD;" d="M512,256c0-14.106-1.159-27.937-3.354-41.423L377.992,83.922L256,478.609l31.465,31.465
	C414.004,494.563,512,386.731,512,256z"/>
<path style="fill:#111449;" d="M428.522,205.913c0-95.281-77.241-172.522-172.522-172.522L211.478,256L256,478.609l133.662-163.621
	C413.949,285.263,428.522,247.292,428.522,205.913z"/>
<path style="fill:#27467A;" d="M256,33.391c-95.281,0-172.522,77.241-172.522,172.522c0,41.378,14.574,79.35,38.86,109.075
	L256,478.609V33.391z"/>
<path style="fill:#D0FBFD;" d="M256.003,89.047l-33.391,116.87l33.391,116.87c64.545,0,116.87-52.324,116.87-116.87
	S320.549,89.047,256.003,89.047z"/>
<path style="fill:#FFFFFF;" d="M139.134,205.916c0,64.545,52.324,116.87,116.87,116.87V89.047
	C191.458,89.047,139.134,141.372,139.134,205.916z"/>
<path style="fill:#25BBCC;" d="M239.78,197.806v52.725l75.177,22.299c18.551-16.361,30.271-40.298,30.271-66.912L239.78,197.806z"/>
<path style="fill:#50D1DD;" d="M314.957,138.997l-75.177,22.307v44.613h105.449C345.229,179.295,333.508,155.366,314.957,138.997z"
	/>
<path style="fill:#78E3EC;" d="M211.39,189.694l-44.613,16.223c0,26.614,11.721,50.551,30.271,66.912l58.955-22.299v-44.613
	L211.39,189.694z"/>
<g>
	<path style="fill:#A0F6FA;" d="M197.049,138.997c-18.551,16.368-30.271,40.298-30.271,66.92h89.226v-44.613L197.049,138.997z"/>
	<path style="fill:#A0F6FA;" d="M256.003,250.529c22.574,0,43.218,8.428,58.955,22.299c-15.728,13.879-36.38,22.314-58.955,22.314
		l-16.223-22.306L256.003,250.529z"/>
</g>
<path style="fill:#FFFFFF;" d="M256.003,250.529v44.613c-22.574,0-43.226-8.436-58.955-22.314
	C212.785,258.95,233.429,250.529,256.003,250.529z"/>
<path style="fill:#D0FBFD;" d="M314.957,138.997c-15.736,13.879-36.38,22.307-58.955,22.307l-16.223-22.307l16.223-22.307
	C278.577,116.69,299.228,125.127,314.957,138.997z"/>
<path style="fill:#FFFFFF;" d="M256.003,116.69v44.613c-22.574,0-43.218-8.428-58.955-22.307
	C212.777,125.127,233.429,116.69,256.003,116.69z"/>
<path style="fill:#111449;" d="M256.003,105.742c55.24,0,100.174,44.934,100.174,100.174S311.244,306.09,256.003,306.09
	l-11.13-10.948l11.13-11.369c4.909-2.059,16.518-24.598,18.31-66.727h-18.31l-11.13-11.13l11.13-11.13h18.31
	c-1.792-42.129-13.401-64.668-18.31-66.727l-11.13-11.369L256.003,105.742z M296.585,194.786h36.519
	c-3.974-27.681-22.55-50.699-47.661-60.984C292.055,150.431,295.683,172.547,296.585,194.786z M333.104,217.047h-36.519
	c-0.902,22.239-4.53,44.355-11.142,60.984C310.554,267.746,329.13,244.728,333.104,217.047z"/>
<path style="fill:#2F5E88;" d="M256.003,283.774v22.316c-55.24,0-100.174-44.934-100.174-100.174s44.934-100.174,100.174-100.174
	v22.317c-4.909,2.059-16.518,24.598-18.31,66.727h18.31v22.261h-18.31C239.486,259.176,251.095,281.715,256.003,283.774z
	 M215.422,194.786c0.902-22.239,4.53-44.355,11.142-60.984c-25.11,10.285-43.687,33.302-47.661,60.984H215.422z M226.563,278.03
	c-6.611-16.629-10.24-38.745-11.142-60.984h-36.519C182.876,244.728,201.453,267.746,226.563,278.03z"/>
<g>
</g>
<g>
</g>
<g>
</g>
<g>
</g>
<g>
</g>
<g>
</g>
<g>
</g>
<g>
</g>
<g>
</g>
<g>
</g>
<g>
</g>
<g>
</g>
<g>
</g>
<g>
</g>
<g>
</g>
</svg>
